<svg version="1.1" viewBox="0.0 0.0 960.0 720.0" fill="none" stroke="none" stroke-linecap="square" stroke-miterlimit="10" xmlns:xlink="http://www.w3.org/1999/xlink" xmlns="http://www.w3.org/2000/svg"><clipPath id="p.0"><path d="m0 0l960.0 0l0 720.0l-960.0 0l0 -720.0z" clip-rule="nonzero"/></clipPath><g clip-path="url(#p.0)"><path fill="#000000" fill-opacity="0.0" d="m0 0l960.0 0l0 720.0l-960.0 0z" fill-rule="evenodd"/><g filter="url(#shadowFilter-p.1)"><use xlink:href="#p.1" transform="matrix(1.0 0.0 0.0 1.0 0.0 2.0)"/></g><defs><filter id="shadowFilter-p.1" filterUnits="userSpaceOnUse"><feGaussianBlur in="SourceAlpha" stdDeviation="2.0" result="blur"/><feComponentTransfer in="blur" color-interpolation-filters="sRGB"><feFuncR type="linear" slope="0" intercept="0.0"/><feFuncG type="linear" slope="0" intercept="0.0"/><feFuncB type="linear" slope="0" intercept="0.0"/><feFuncA type="linear" slope="0.5" intercept="0"/></feComponentTransfer></filter></defs><g id="p.1"><path fill="#7f4f6b" d="m0.01120642 0.0055769775l397.90558 713.497l139.40707 0l402.10883 -713.497l-138.70654 0l-277.41302 518.3317c-21.016174 38.93573 -39.463654 77.87146 -55.34253 116.80719c-14.477783 -36.340027 -32.458252 -75.27576 -53.941437 -116.80719l-266.90497 -518.3317z" fill-rule="evenodd"/><path stroke="#000000" stroke-width="1.0" stroke-linejoin="round" stroke-linecap="butt" d="m0.01120642 0.0055769775l397.90558 713.497l139.40707 0l402.10883 -713.497l-138.70654 0l-277.41302 518.3317c-21.016174 38.93573 -39.463654 77.87146 -55.34253 116.80719c-14.477783 -36.340027 -32.458252 -75.27576 -53.941437 -116.80719l-266.90497 -518.3317z" fill-rule="evenodd"/></g><g filter="url(#shadowFilter-p.2)"><use xlink:href="#p.2" transform="matrix(1.0 0.0 0.0 1.0 0.0 2.0)"/></g><defs><filter id="shadowFilter-p.2" filterUnits="userSpaceOnUse"><feGaussianBlur in="SourceAlpha" stdDeviation="2.0" result="blur"/><feComponentTransfer in="blur" color-interpolation-filters="sRGB"><feFuncR type="linear" slope="0" intercept="0.0"/><feFuncG type="linear" slope="0" intercept="0.0"/><feFuncB type="linear" slope="0" intercept="0.0"/><feFuncA type="linear" slope="0.5" intercept="0"/></feComponentTransfer></filter></defs><g id="p.2"><path fill="#7f4f6b" d="m960.0232 0.0055769775l-397.90558 713.497l-139.40704 0l-402.1088 -713.497l138.70651 0l277.41306 518.3317c21.016144 38.93573 39.463623 77.87146 55.3425 116.80719c14.477783 -36.340027 32.458252 -75.27576 53.941406 -116.80719l266.90497 -518.3317z" fill-rule="evenodd"/><path stroke="#000000" stroke-width="1.0" stroke-linejoin="round" stroke-linecap="butt" d="m960.0232 0.0055769775l-397.90558 713.497l-139.40704 0l-402.1088 -713.497l138.70651 0l277.41306 518.3317c21.016144 38.93573 39.463623 77.87146 55.3425 116.80719c14.477783 -36.340027 32.458252 -75.27576 53.941406 -116.80719l266.90497 -518.3317z" fill-rule="evenodd"/></g><g filter="url(#shadowFilter-p.3)"><use xlink:href="#p.3" transform="matrix(1.0 0.0 0.0 1.0 0.0 2.0)"/></g><defs><filter id="shadowFilter-p.3" filterUnits="userSpaceOnUse"><feGaussianBlur in="SourceAlpha" stdDeviation="2.0" result="blur"/><feComponentTransfer in="blur" color-interpolation-filters="sRGB"><feFuncR type="linear" slope="0" intercept="0.0"/><feFuncG type="linear" slope="0" intercept="0.0"/><feFuncB type="linear" slope="0" intercept="0.0"/><feFuncA type="linear" slope="0.5" intercept="0"/></feComponentTransfer></filter></defs><g id="p.3"><path fill="#7f4f6b" d="m476.81763 75.019104c-10.085907 38.611794 -25.511444 87.93106 -46.27658 147.95781l-68.079956 197.60155l221.14865 0l-71.63971 -209.28242c-15.128876 -45.10118 -26.846344 -90.52682 -35.152405 -136.27693zm44.496704 -74.95231l250.51648 713.5071l-91.66321 0l-71.63971 -216.09628l-272.76483 0l-76.089386 216.09628l-98.33774 0l266.9803 -713.5071z" fill-rule="evenodd"/><path stroke="#000000" stroke-width="1.0" stroke-linejoin="round" stroke-linecap="butt" d="m476.81763 75.019104c-10.085907 38.611794 -25.511444 87.93106 -46.27658 147.95781l-68.079956 197.60155l221.14865 0l-71.63971 -209.28242c-15.128876 -45.10118 -26.846344 -90.52682 -35.152405 -136.27693zm44.496704 -74.95231l250.51648 713.5071l-91.66321 0l-71.63971 -216.09628l-272.76483 0l-76.089386 216.09628l-98.33774 0l266.9803 -713.5071z" fill-rule="evenodd"/></g><g filter="url(#shadowFilter-p.4)"><use xlink:href="#p.4" transform="matrix(1.0 0.0 0.0 1.0 0.0 2.0)"/></g><defs><filter id="shadowFilter-p.4" filterUnits="userSpaceOnUse"><feGaussianBlur in="SourceAlpha" stdDeviation="2.0" result="blur"/><feComponentTransfer in="blur" color-interpolation-filters="sRGB"><feFuncR type="linear" slope="0" intercept="0.0"/><feFuncG type="linear" slope="0" intercept="0.0"/><feFuncB type="linear" slope="0" intercept="0.0"/><feFuncA type="linear" slope="0.5" intercept="0"/></feComponentTransfer></filter></defs><g id="p.4"><path fill="#7f4f6b" d="m498.48553 75.019104c-10.085907 38.611794 -25.511444 87.93106 -46.27658 147.95781l-68.079956 197.60155l221.14865 0l-71.63971 -209.28242c-15.128906 -45.10118 -26.846344 -90.52682 -35.152405 -136.27693zm44.496704 -74.95231l250.51648 713.5071l-91.66321 0l-71.63971 -216.09628l-272.76483 0l-76.089386 216.09628l-98.33772 0l266.9803 -713.5071z" fill-rule="evenodd"/><path stroke="#000000" stroke-width="1.0" stroke-linejoin="round" stroke-linecap="butt" d="m498.48553 75.019104c-10.085907 38.611794 -25.511444 87.93106 -46.27658 147.95781l-68.079956 197.60155l221.14865 0l-71.63971 -209.28242c-15.128906 -45.10118 -26.846344 -90.52682 -35.152405 -136.27693zm44.496704 -74.95231l250.51648 713.5071l-91.66321 0l-71.63971 -216.09628l-272.76483 0l-76.089386 216.09628l-98.33772 0l266.9803 -713.5071z" fill-rule="evenodd"/></g><g filter="url(#shadowFilter-p.5)"><use xlink:href="#p.5" transform="matrix(1.0 0.0 0.0 1.0 0.0 2.0)"/></g><defs><filter id="shadowFilter-p.5" filterUnits="userSpaceOnUse"><feGaussianBlur in="SourceAlpha" stdDeviation="2.0" result="blur"/><feComponentTransfer in="blur" color-interpolation-filters="sRGB"><feFuncR type="linear" slope="0" intercept="0.0"/><feFuncG type="linear" slope="0" intercept="0.0"/><feFuncB type="linear" slope="0" intercept="0.0"/><feFuncA type="linear" slope="0.5" intercept="0"/></feComponentTransfer></filter></defs><g id="p.5"><path fill="#7f4f6b" d="m460.1533 75.019104c-10.085907 38.611794 -25.511444 87.93106 -46.27658 147.95781l-68.079956 197.60155l221.14862 0l-71.63968 -209.28242c-15.128876 -45.10118 -26.846344 -90.52682 -35.152405 -136.27693zm44.496704 -74.95231l250.51651 713.5071l-91.66321 0l-71.63971 -216.09628l-272.76486 0l-76.089386 216.09628l-98.33772 0l266.9803 -713.5071z" fill-rule="evenodd"/><path stroke="#000000" stroke-width="1.0" stroke-linejoin="round" stroke-linecap="butt" d="m460.1533 75.019104c-10.085907 38.611794 -25.511444 87.93106 -46.27658 147.95781l-68.079956 197.60155l221.14862 0l-71.63968 -209.28242c-15.128876 -45.10118 -26.846344 -90.52682 -35.152405 -136.27693zm44.496704 -74.95231l250.51651 713.5071l-91.66321 0l-71.63971 -216.09628l-272.76486 0l-76.089386 216.09628l-98.33772 0l266.9803 -713.5071z" fill-rule="evenodd"/></g><g filter="url(#shadowFilter-p.6)"><use xlink:href="#p.6" transform="matrix(1.0 0.0 0.0 1.0 0.0 2.0)"/></g><defs><filter id="shadowFilter-p.6" filterUnits="userSpaceOnUse"><feGaussianBlur in="SourceAlpha" stdDeviation="2.0" result="blur"/><feComponentTransfer in="blur" color-interpolation-filters="sRGB"><feFuncR type="linear" slope="0" intercept="0.0"/><feFuncG type="linear" slope="0" intercept="0.0"/><feFuncB type="linear" slope="0" intercept="0.0"/><feFuncA type="linear" slope="0.5" intercept="0"/></feComponentTransfer></filter></defs><g id="p.6"><path fill="#7f4f6b" d="m481.8212 75.019104c-10.085907 38.611794 -25.511444 87.93106 -46.27658 147.95781l-68.079956 197.60155l221.14868 0l-71.63971 -209.28242c-15.128906 -45.10118 -26.846375 -90.52682 -35.152435 -136.27693zm44.496735 -74.95231l250.51648 713.5071l-91.66321 0l-71.63971 -216.09628l-272.76486 0l-76.089386 216.09628l-98.33772 0l266.9803 -713.5071z" fill-rule="evenodd"/><path stroke="#000000" stroke-width="1.0" stroke-linejoin="round" stroke-linecap="butt" d="m481.8212 75.019104c-10.085907 38.611794 -25.511444 87.93106 -46.27658 147.95781l-68.079956 197.60155l221.14868 0l-71.63971 -209.28242c-15.128906 -45.10118 -26.846375 -90.52682 -35.152435 -136.27693zm44.496735 -74.95231l250.51648 713.5071l-91.66321 0l-71.63971 -216.09628l-272.76486 0l-76.089386 216.09628l-98.33772 0l266.9803 -713.5071z" fill-rule="evenodd"/></g></g></svg>